PathFileType	4	(X/Y/Z)	Trial5455_Both_Hips_markers_cropped.trc
DataRate	CameraRate	NumFrames	NumMarkers	Units	OrigDataRate	OrigDataStartFrame	OrigNumFrames																																																																																													
200	200	8	27	m	200	63	101
Frame#	Time	R_ASIS			L_ASIS			Sacral			L_Thigh_Superior			L_Thigh_Inferior			L_Thigh_Lateral			L_Shank_Superior			L_Shank_Inferior			L_Shank_Lateral			L_Heel			L_Midfoot_Superior			L_Midfoot_Lateral			L_Toe			R_Thigh_Superior			R_Thigh_Inferior			R_Thigh_Lateral			R_Shank_Superior			R_Shank_Lateral			R_Shank_Inferior			R_Heel			R_Midfoot_Superior			R_Midfoot_Lateral			R_Toe
		X1	Y1	Z1	X2	Y2	Z2	X3	Y3	Z3	X4	Y4	Z4	X5	Y5	Z5	X6	Y6	Z6	X7	Y7	Z7	X8	Y8	Z8	X9	Y9	Z9	X10	Y10	Z10	X11	Y11	Z11	X12	Y12	Z12	X13	Y13	Z13	X14	Y14	Z14	X15	Y15	Z15	X16	Y16	Z16	X17	Y17	Z17	X18	Y18	Z18	X19	Y19	Z19	X20	Y20	Z20	X21	Y21	Z21	X22	Y22	Z22	X23	Y23	Z23

64	   0.315	   -0.62994846794921	    0.94226710018056	   -0.44542620806050	   -0.62213057285289	    0.93543764571774	   -0.71852310609150	   -0.81709387267317	    1.05432072219067	   -0.59097338224417	   -0.60435044309694	    0.74060982502789	   -0.66916156796266	   -0.62030259106318	    0.54864684464939	   -0.66495466328639	   -0.68653147791547	    0.63454930107621	   -0.74282393614588	   -0.64180178456543	    0.41597780323584	   -0.66315121167256	   -0.66083551520610	    0.18993240097968	   -0.63098191623786	   -0.71615134758843	    0.29134837785939	   -0.71481761899864	   -0.77672998496546	    0.03144214054754	   -0.58583256177264	   -0.62063709383540	    0.09248006209502	   -0.63672251746580	   -0.69889214337930	    0.02801012847353	   -0.66447889432500	   -0.48929269949040	    0.04766188514182	   -0.65412093780003	   -0.69478418279082	    0.72073385739536	   -0.46350699730632	   -0.78246745011725	    0.57738934919493	   -0.48584242991596	   -0.83421583236357	    0.66431907953979	   -0.41761880166170	   -0.89887888089331	    0.43821266207052	   -0.47763067911440	   -1.02262734861426	    0.28050469090922	   -0.48066078075856	   -1.02412154012859	    0.39036546901712	   -0.42643208218697	   -1.21715053464937	    0.19185950138975	   -0.53040618770286	   -1.04727344393563	    0.16645413049494	   -0.46840734319467	   -1.15810969401423	    0.15446900026189	   -0.44361944559386	   -0.96943009574131	    0.07288941061197	   -0.41758469970310
65	   0.320	   -0.63079456871922	    0.93917425730754	   -0.44647828656514	   -0.62111957376064	    0.93417979507021	   -0.71958758635631	   -0.81423327730280	    1.05606194753529	   -0.59285927062448	   -0.60422486685680	    0.74078772816022	   -0.66973021662566	   -0.61908042448943	    0.54860285413543	   -0.66565203903131	   -0.68522326242445	    0.63415166207650	   -0.74427344559965	   -0.64047669879715	    0.41566931157260	   -0.66354902894029	   -0.66009223584483	    0.18972685014292	   -0.63114470648105	   -0.71487125986259	    0.29112815876060	   -0.71507298992877	   -0.77665635594335	    0.03157447429540	   -0.58587393348712	   -0.62018316369561	    0.09208304267007	   -0.63648982193236	   -0.69882648862770	    0.02812344410099	   -0.66453554701565	   -0.48902858481652	    0.04669465440594	   -0.65382483725394	   -0.70666887045842	    0.72012090386647	   -0.46467118827551	   -0.80194753236140	    0.58127117697479	   -0.48681766307433	   -0.85002748041150	    0.67115270887151	   -0.42016996855247	   -0.92435865632580	    0.44814923916941	   -0.47986812432313	   -1.05497709278554	    0.29567428166277	   -0.48453128853151	   -1.05277228226196	    0.40606418312271	   -0.43088185935491	   -1.25218393106241	    0.21619280089529	   -0.53732566774736	   -1.08502344285824	    0.18235139452018	   -0.47230959006696	   -1.19694368986843	    0.17636907007583	   -0.44916889890517	   -1.01311594805385	    0.08520043294660	   -0.41968238948307
66	   0.325	   -0.63054962226941	    0.93696175483822	   -0.44837808143538	   -0.61953998883791	    0.93318896350891	   -0.72136691274513	   -0.81118934545574	    1.05753084458473	   -0.59499856631753	   -0.60347151489118	    0.74083383316554	   -0.67077103473634	   -0.61760087150691	    0.54849756547706	   -0.66657672876713	   -0.68373050021928	    0.63372970647056	   -0.74576955370652	   -0.63894681979599	    0.41538517275407	   -0.66407065160344	   -0.65921818454211	    0.18951241724404	   -0.63131154196029	   -0.71356693036664	    0.29094463478473	   -0.71518890732915	   -0.77656438540755	    0.03172399954675	   -0.58590838574446	   -0.61971801188635	    0.09165753871584	   -0.63629418262983	   -0.69873567951901	    0.02824165430806	   -0.66455853978438	   -0.48875868094939	    0.04570774750245	   -0.65364142990704	   -0.71453033278500	    0.72008518669665	   -0.46630438110690	   -0.81514787754194	    0.58467824904835	   -0.48792514930925	   -0.86024235202772	    0.67674888562756	   -0.42226672759406	   -0.94188683237905	    0.45641509750304	   -0.48124478742442	   -1.07802865594211	    0.30808279201666	   -0.48652413779681	   -1.07255195591105	    0.41893929497076	   -0.43340032189958	   -1.27745036576928	    0.23605520483357	   -0.54063199892185	   -1.11241859788972	    0.19539299537336	   -0.47407477525498	   -1.22485911693941	    0.19440053304709	   -0.45170368148849	   -1.04530572405850	    0.09548204254915	   -0.42021428681696
67	   0.330	   -0.62957372854543	    0.93526948800507	   -0.45059012439710	   -0.61788213612541	    0.93238171112362	   -0.72345197731044	   -0.80835852444977	    1.05857317672929	   -0.59713181724905	   -0.60272127936416	    0.74055971829345	   -0.67243240523759	   -0.61663616022143	    0.54827114596550	   -0.66782775270310	   -0.68275311519980	    0.63326204146767	   -0.74740647112350	   -0.63794112104699	    0.41517234904793	   -0.66489904598007	   -0.65854822740437	    0.18936254208130	   -0.63157419449704	   -0.71279470684610	    0.29074400586538	   -0.71534165133164	   -0.77647817914472	    0.03185956095060	   -0.58592069499450	   -0.61932983977148	    0.09128672815539	   -0.63618212126894	   -0.69865361908288	    0.02834070655058	   -0.66455021153103	   -0.48853903913971	    0.04487468144546	   -0.65357004812275	   -0.71854119439621	    0.72007440305177	   -0.46807649184599	   -0.82237820617028	    0.58688162811884	   -0.48897125981196	   -0.86542917423643	    0.68038263057832	   -0.42380845960053	   -0.95165585078178	    0.46188905857786	   -0.48187672018299	   -1.09135304811425	    0.31616309336738	   -0.48699001565337	   -1.08361919879562	    0.42739258476051	   -0.43430776577093	   -1.29221576300426	    0.24905361153584	   -0.54120366064456	   -1.12856340303192	    0.20374381538381	   -0.47416163055901	   -1.24114192992427	    0.20620831411120	   -0.45195618981393	   -1.06469485011287	    0.10202183967258	   -0.41959840241604
68	   0.335	   -0.62807594525572	    0.93384281650680	   -0.45279840907083	   -0.61644505399220	    0.93180018078377	   -0.72562525413746	   -0.80604215788912	    1.05901371825648	   -0.59899607959030	   -0.60203684543068	    0.73996353411661	   -0.67481334052486	   -0.61621378849214	    0.54792908774866	   -0.66940109951877	   -0.68238686585947	    0.63276381517258	   -0.74915611786625	   -0.63749832764705	    0.41500559955157	   -0.66600689325656	   -0.65812399631126	    0.18927591996137	   -0.63193145743771	   -0.71256221842879	    0.29050564359295	   -0.71560732207120	   -0.77640844217609	    0.03196287530573	   -0.58590737864896	   -0.61904484182524	    0.09101208741828	   -0.63614989220365	   -0.69859782442603	    0.02841717950924	   -0.66452094615708	   -0.48838431109624	    0.04425625092442	   -0.65358446602225	   -0.71891826121642	    0.71974744125048	   -0.46991095900996	   -0.82408405278800	    0.58753453992131	   -0.48995483180434	   -0.86604569725282	    0.68168349481845	   -0.42492323884984	   -0.95415217550607	    0.46401871697432	   -0.48207089055529	   -1.09515714384357	    0.31917029287401	   -0.48642874265835	   -1.08646254772735	    0.43066628591808	   -0.43413942847707	   -1.29655330872919	    0.25405052532942	   -0.54000940054357	   -1.13346110042841	    0.20653600225340	   -0.47316932173484	   -1.24597426684603	    0.21067012236330	   -0.45076705814968	   -1.07106384867130	    0.10396747194623	   -0.41841278469406
69	   0.340	   -0.62603718266290	    0.93268540335546	   -0.45493483269223	   -0.61513620530201	    0.93154548321131	   -0.72782998077831	   -0.80430048726261	    1.05878774690070	   -0.60048780996505	   -0.60096349596426	    0.73919384123492	   -0.67772133290552	   -0.61573134113472	    0.54752418106000	   -0.67110096502570	   -0.68207452025272	    0.63228987654856	   -0.75083837249703	   -0.63708838956966	    0.41481257744615	   -0.66717376724334	   -0.65775685398407	    0.18918927604214	   -0.63231786054755	   -0.71241247861551	    0.29025043787993	   -0.71597837833951	   -0.77635627143273	    0.03203562227065	   -0.58588021349233	   -0.61883467555179	    0.09082723198851	   -0.63615699067858	   -0.69856701800161	    0.02848071246437	   -0.66448598908176	   -0.48827031384931	    0.04380646965880	   -0.65363730472939	   -0.71601839009057	    0.71905730632946	   -0.47181439301347	   -0.82085619393584	    0.58665651954779	   -0.49093027836936	   -0.86260931277438	    0.68072911215667	   -0.42578112027151	   -0.95023378019774	    0.46292504351522	   -0.48202330231518	   -1.09052756797582	    0.31738536123590	   -0.48531997402056	   -1.08214312964980	    0.42906748319574	   -0.43345273835884	   -1.29158713668979	    0.25152852004885	   -0.53801596989190	   -1.12836805718024	    0.20414637187880	   -0.47158617418735	   -1.24076490494502	    0.20828571150744	   -0.44889501559663	   -1.06583003494086	    0.10161939054256	   -0.41693279930159
70	   0.345	   -0.62331280264105	    0.93201628155950	   -0.45699627988169	   -0.61355828342232	    0.93169882993337	   -0.73000297622465	   -0.80290421640677	    1.05792201562127	   -0.60166266625063	   -0.59898675339471	    0.73838878768592	   -0.68076340608827	   -0.61456698098824	    0.54709521853923	   -0.67266153335984	   -0.68112962148631	    0.63189739577133	   -0.75225099180203	   -0.63617161532072	    0.41453782765932	   -0.66818437047211	   -0.65726130425821	    0.18904675221779	   -0.63268311775238	   -0.71189686384613	    0.29001376363157	   -0.71644242937097	   -0.77632218493530	    0.03208709901321	   -0.58585886708188	   -0.61866558855502	    0.09071083115695	   -0.63617411829188	   -0.69855086457240	    0.02853752211689	   -0.66446149098490	   -0.48816996607402	    0.04346214663540	   -0.65368312024480	   -0.71029411146434	    0.71816512967346	   -0.47364209251832	   -0.81330036062350	    0.58449975205542	   -0.49181549601830	   -0.85581861509986	    0.67797751142925	   -0.42641933794006	   -0.94100662640437	    0.45918824252162	   -0.48173377757821	   -1.07917482320209	    0.31187281476602	   -0.48401284781762	   -1.07213527192758	    0.42374297724898	   -0.43269549892313	   -1.27918472132975	    0.24326570462085	   -0.53609856700603	   -1.11548345923831	    0.19790339842383	   -0.46966550835063	   -1.22784461801072	    0.20085261653181	   -0.44691771431469	   -1.05174121690182	    0.09618572886440	   -0.41493936905996
71	   0.350	   -0.61976852360481	    0.93208283877821	   -0.45895554404337	   -0.61131797535464	    0.93228185461141	   -0.73201157270675	   -0.80150664150099	    1.05649624830063	   -0.60260762206957	   -0.59589957589355	    0.73759709218314	   -0.68357957589455	   -0.61250905862038	    0.54664709148148	   -0.67393813950197	   -0.67922532504955	    0.63162751972543	   -0.75328815039470	   -0.63458333016471	    0.41417289478881	   -0.66895990689500	   -0.65659702401538	    0.18884262940546	   -0.63302871126173	   -0.71088917170140	    0.28982041695136	   -0.71702233180016	   -0.77630892499752	    0.03212109280376	   -0.58586007650771	   -0.61853668036729	    0.09064538607507	   -0.63620319129519	   -0.69854159642535	    0.02858076773281	   -0.66445993776887	   -0.48807781530329	    0.04321031326473	   -0.65369629370942	   -0.70215296536488	    0.71728238595221	   -0.47521178810498	   -0.80181597579315	    0.58136359474177	   -0.49244215289054	   -0.84618760779734	    0.67391333806853	   -0.42682894369110	   -0.92743304189424	    0.45349980225096	   -0.48109969059744	   -1.06283407141116	    0.30394341458123	   -0.48266211723521	   -1.05777200672607	    0.41607134637747	   -0.43211113875311	   -1.26134676106204	    0.23152014544250	   -0.53478974831781	   -1.09718106654089	    0.18943002147057	   -0.46745007928848	   -1.20962891963797	    0.19056269181522	   -0.44515702722492	   -1.03185103856618	    0.08912434606075	   -0.41200110401706
